<svg height="17" width="17" fill="none" viewBox="0 0 17 17"><path clip-rule="evenodd" d="M6.71429 13.1429C8.0248 13.1429 9.24372 12.7507 10.2601 12.0774L14.5057 16.3186L16.3186 14.5057L12.0774 10.2601C12.7507 9.24368 13.1429 8.02478 13.1429 6.71428C13.1429 3.16388 10.2647 0.285713 6.71429 0.285713C3.16389 0.285713 0.285721 3.16388 0.285721 6.71428C0.285721 10.2647 3.16389 13.1429 6.71429 13.1429ZM10.8286 6.71428C10.8286 8.98654 8.98655 10.8286 6.71429 10.8286C4.44203 10.8286 2.60001 8.98654 2.60001 6.71428C2.60001 4.44203 4.44203 2.6 6.71429 2.6C8.98655 2.6 10.8286 4.44203 10.8286 6.71428Z" fill="#FF8800" fill-rule="evenodd"></path></svg>